<svg width="35" height="14" viewBox="0 0 35 14" fill="none" xmlns="http://www.w3.org/2000/svg">
<path d="M6.39453 7.83398C5.83984 7.83398 5.32422 7.75977 4.84766 7.61133C4.30078 8.06445 3.89062 8.37891 3.61719 8.55469C3.10938 8.87109 2.5918 9.0293 2.06445 9.0293C1.46289 9.0293 1.07422 8.85547 0.898438 8.50781C0.847656 8.40234 0.822266 8.29883 0.822266 8.19727C0.822266 8.0957 0.839844 8.01367 0.875 7.95117C0.910156 7.88867 0.953125 7.83984 1.00391 7.80469C1.10938 7.73047 1.23242 7.69336 1.37305 7.69336C1.56836 7.69336 1.66602 7.78125 1.66602 7.95703C1.66602 8.03516 1.63477 8.10352 1.57227 8.16211C1.50586 8.2168 1.41797 8.24414 1.30859 8.24414C1.19531 8.24414 1.11133 8.22461 1.05664 8.18555V8.22656C1.05664 8.65625 1.4082 8.87109 2.11133 8.87109C2.59961 8.87109 3.15234 8.65625 3.76953 8.22656L4.64258 7.54102C4.08789 7.33398 3.64453 7.04102 3.3125 6.66211C2.99219 6.30273 2.82031 5.90625 2.79688 5.47266C2.77344 5.04688 2.91406 4.68359 3.21875 4.38281C3.53906 4.06641 3.97266 3.9082 4.51953 3.9082C5.28125 3.9082 5.92188 4.23438 6.44141 4.88672C6.59766 5.08594 6.73047 5.29883 6.83984 5.52539C8.09375 4.32227 8.91406 3.54883 9.30078 3.20508L10.2617 2.37305C11.5586 1.30664 12.5137 0.773438 13.127 0.773438C13.1973 0.773438 13.2324 0.785156 13.2324 0.808594C13.2324 0.835938 13.1992 0.861328 13.1328 0.884766C13.0703 0.908203 13 0.958984 12.9219 1.03711C12.8438 1.11523 12.7305 1.24609 12.582 1.42969L12.0078 2.16211L8.04102 7.43555C9.13086 7.11133 9.98047 6.53125 10.5898 5.69531C10.7852 5.42969 10.916 5.20703 10.9824 5.02734C11.0723 4.78906 11.127 4.66992 11.1465 4.66992C11.1582 4.66992 11.1758 4.6875 11.1992 4.72266C11.2266 4.75391 11.2363 4.82422 11.2285 4.93359C11.2246 5.03906 11.1973 5.16602 11.1465 5.31445C11.0957 5.45898 11.0312 5.59766 10.9531 5.73047C10.8242 5.95312 10.6113 6.20508 10.3145 6.48633C9.7168 7.06836 8.89648 7.4668 7.85352 7.68164L6.85156 9.00586L6.47656 8.98242C6.35156 8.97461 6.25195 8.9707 6.17773 8.9707C6.10742 8.9707 6.04688 8.97461 5.99609 8.98242L5.83203 9.00586L6.69922 7.93359C6.71094 7.91406 6.72266 7.89648 6.73438 7.88086C6.74609 7.86133 6.75586 7.8418 6.76367 7.82227C6.63867 7.83008 6.51562 7.83398 6.39453 7.83398ZM6.92188 5.70703C7.08203 6.11719 7.16211 6.46875 7.16211 6.76172C7.16211 7.05469 7.13867 7.28516 7.0918 7.45312L9.26562 4.82227C10.6992 3.1543 11.5879 2.13867 11.9316 1.77539C12.2754 1.4082 12.5293 1.14844 12.6934 0.996094L12.3008 1.16016C11.7734 1.39062 11.0195 1.92969 10.0391 2.77734L8.80859 3.89062L6.92188 5.70703ZM4.7832 7.42383C5.54492 6.74414 6.18555 6.15234 6.70508 5.64844C6.38086 4.91016 5.88672 4.42578 5.22266 4.19531C5 4.12109 4.78125 4.08398 4.56641 4.08398C4.35547 4.08398 4.16602 4.12305 3.99805 4.20117C3.83398 4.27539 3.68945 4.375 3.56445 4.5C3.29492 4.76953 3.16016 5.08984 3.16016 5.46094C3.16016 6.11328 3.46484 6.65039 4.07422 7.07227C4.27734 7.21289 4.51367 7.33008 4.7832 7.42383ZM4.98828 7.48828C5.41797 7.60938 5.89844 7.66992 6.42969 7.66992C6.56641 7.66992 6.70312 7.66406 6.83984 7.65234C6.92969 7.42188 6.97461 7.19922 6.97461 6.98438C6.97461 6.58594 6.91016 6.20508 6.78125 5.8418C5.90234 6.66992 5.30469 7.21875 4.98828 7.48828ZM12.3418 5.02148C12.5293 5.04492 12.7031 5.05664 12.8633 5.05664C13.0234 5.05664 13.1562 5.05078 13.2617 5.03906C12.9141 5.35156 12.6543 5.60547 12.4824 5.80078L11.6973 6.66797C11.6348 6.73828 11.5527 6.82422 11.4512 6.92578L10.7891 7.62891C10.3711 8.08594 10.1621 8.39258 10.1621 8.54883C10.1621 8.70508 10.1914 8.79688 10.25 8.82422C10.3086 8.84766 10.418 8.85938 10.5781 8.85938C10.7344 8.85938 10.9355 8.81445 11.1816 8.72461C11.4277 8.63086 11.6777 8.50977 11.9316 8.36133C12.3926 8.0918 12.8047 7.79688 13.168 7.47656C13.5352 7.15234 13.7832 6.9082 13.9121 6.74414C14.041 6.58008 14.1387 6.42188 14.2051 6.26953C14.3145 6.01953 14.3691 5.70898 14.3691 5.33789C14.3691 5.19336 14.4141 5.07617 14.5039 4.98633C14.5938 4.89258 14.7031 4.8457 14.832 4.8457C15.0508 4.8457 15.1602 4.95312 15.1602 5.16797C15.1602 5.61328 14.7715 6.21289 13.9941 6.9668L13.8359 7.11328C13.5938 7.44141 13.5312 7.67188 13.6484 7.80469C13.6914 7.84766 13.7715 7.86914 13.8887 7.86914C14.0098 7.86914 14.1543 7.82031 14.3223 7.72266C14.4902 7.625 14.6543 7.50977 14.8145 7.37695C14.9785 7.24023 15.1289 7.10156 15.2656 6.96094L15.5879 6.62109L15.7109 6.7207C14.9102 7.58398 14.2812 8.01562 13.8242 8.01562C13.6328 8.01562 13.5117 7.95898 13.4609 7.8457C13.4141 7.73242 13.4336 7.58203 13.5195 7.39453C12.6719 8.10547 11.8828 8.59375 11.1523 8.85938C10.8828 8.96094 10.6367 9.01172 10.4141 9.01172C10.1914 9.01172 10.0254 8.96875 9.91602 8.88281C9.80664 8.79297 9.75195 8.68555 9.75195 8.56055C9.75195 8.43164 9.76562 8.31641 9.79297 8.21484C9.82031 8.10938 9.875 7.98438 9.95703 7.83984C10.1055 7.57422 10.3418 7.24023 10.666 6.83789C10.9863 6.43555 11.2715 6.10547 11.5215 5.84766L12.3418 5.02148ZM17.8086 8.49609C17.5625 8.65234 17.2949 8.78125 17.0059 8.88281C16.7207 8.98438 16.4492 9.03516 16.1914 9.03516C15.9336 9.03516 15.7363 9.00977 15.5996 8.95898C15.4668 8.9043 15.3574 8.83008 15.2715 8.73633C14.9043 8.33789 14.9062 7.75 15.2773 6.97266C15.4375 6.62891 15.6797 6.31641 16.0039 6.03516C16.3281 5.75 16.6133 5.53711 16.8594 5.39648C17.3359 5.12305 17.7832 4.98633 18.2012 4.98633C18.6152 4.98633 18.832 5.11523 18.8516 5.37305C18.8789 5.79102 18.3711 6.24609 17.3281 6.73828C16.9453 6.91797 16.4629 7.10352 15.8809 7.29492C15.6504 7.66992 15.5352 7.97656 15.5352 8.21484C15.5352 8.44922 15.5957 8.61719 15.7168 8.71875C15.8418 8.81641 16.0215 8.86523 16.2559 8.86523C16.4941 8.86523 16.75 8.81445 17.0234 8.71289C17.3008 8.61133 17.5586 8.48242 17.7969 8.32617C18.0391 8.16992 18.2578 8 18.4531 7.81641C18.6484 7.63281 18.8203 7.45703 18.9688 7.28906C19.1211 7.12109 19.2441 6.97656 19.3379 6.85547C19.4355 6.73047 19.502 6.65234 19.5371 6.62109L19.6602 6.7207C19.6094 6.76367 19.5312 6.85156 19.4258 6.98438C19.3242 7.11719 19.1934 7.26953 19.0332 7.44141C18.877 7.60938 18.6953 7.78711 18.4883 7.97461C18.2852 8.16211 18.0586 8.33594 17.8086 8.49609ZM16.0156 7.08984C17.1953 6.67578 17.9551 6.26367 18.2949 5.85352C18.4082 5.7168 18.4648 5.58398 18.4648 5.45508C18.4648 5.23633 18.3633 5.12695 18.1602 5.12695C17.8008 5.12695 17.3516 5.44141 16.8125 6.07031C16.4375 6.50781 16.1719 6.84766 16.0156 7.08984ZM18.9629 8.58984C18.9629 8.76953 19.0781 8.85938 19.3086 8.85938C19.5391 8.85938 19.793 8.80078 20.0703 8.68359C20.3516 8.5625 20.627 8.40625 20.8965 8.21484C21.416 7.85156 21.8945 7.39844 22.332 6.85547C23.0195 6.07031 23.4316 5.5957 23.5684 5.43164C23.5684 5.43164 23.6738 5.30078 23.8848 5.03906C24.0371 5.06641 24.1484 5.08008 24.2188 5.08008C24.418 5.08008 24.5684 5.07227 24.6699 5.05664L22.6309 7.57031L21.5938 8.95898L20.7031 10.1191C21.7109 9.63477 22.4844 9.15234 23.0234 8.67188C23.375 8.35938 23.7051 8.01562 24.0137 7.64062L24.8574 6.62109L24.9805 6.7207L24.2422 7.59375C23.8047 8.10938 23.4395 8.49414 23.1465 8.74805C22.8535 9.00195 22.5859 9.21094 22.3438 9.375C21.8828 9.67969 21.2676 10.0137 20.498 10.377C19.7715 11.2871 19.2246 11.9199 18.8574 12.2754C18.4863 12.6309 18.1934 12.8828 17.9785 13.0312C17.7637 13.1836 17.5547 13.3027 17.3516 13.3887C17.0078 13.5371 16.5996 13.6113 16.127 13.6113C15.8887 13.6113 15.7305 13.5273 15.6523 13.3594C15.6289 13.3125 15.6172 13.2383 15.6172 13.1367C15.6172 13.0352 15.6836 12.8926 15.8164 12.709C15.9453 12.5293 16.168 12.3281 16.4844 12.1055C17.1172 11.6602 18.2109 11.1094 19.7656 10.4531L22.1504 7.42969L22.0859 7.40625C21.7148 7.80469 21.3359 8.12109 20.9492 8.35547C20.2266 8.79297 19.6484 9.01172 19.2148 9.01172C18.9961 9.01172 18.832 8.96875 18.7227 8.88281C18.6133 8.79297 18.5586 8.68555 18.5586 8.56055C18.5586 8.43164 18.5703 8.31641 18.5938 8.21484C18.6172 8.10938 18.6641 7.98438 18.7344 7.83984C18.8789 7.5625 19.1543 7.13867 19.5605 6.56836C19.7402 6.3457 19.957 6.10547 20.2109 5.84766L21.0254 5.02148L21.3008 5.05078C21.3633 5.05469 21.459 5.05664 21.5879 5.05664C21.7207 5.05664 21.8398 5.05078 21.9453 5.03906C21.5977 5.35156 21.3379 5.60547 21.166 5.80078L20.75 6.26953C19.8867 7.22656 19.4004 7.78516 19.291 7.94531C19.0723 8.25781 18.9629 8.47266 18.9629 8.58984ZM19.5605 10.7051C17.5957 11.5449 16.4141 12.2129 16.0156 12.709C15.875 12.8848 15.8047 13.0547 15.8047 13.2188C15.8047 13.2617 15.832 13.3105 15.8867 13.3652C15.9375 13.4238 16.0488 13.4531 16.2207 13.4531C16.3926 13.4531 16.584 13.4141 16.7949 13.3359C17.002 13.2617 17.2344 13.125 17.4922 12.9258C17.9648 12.5508 18.6543 11.8105 19.5605 10.7051ZM25.8418 8.54297C25.8418 8.72266 25.918 8.8125 26.0703 8.8125C26.2266 8.8125 26.3965 8.76562 26.5801 8.67188C26.7676 8.57812 26.957 8.45898 27.1484 8.31445C27.3438 8.16992 27.5352 8.00977 27.7227 7.83398L28.2324 7.32422C28.3887 7.16406 28.5234 7.01953 28.6367 6.89062L28.877 6.62109L28.9941 6.7207C28.9199 6.78711 28.8203 6.89062 28.6953 7.03125L28.2734 7.5C27.3203 8.50781 26.5 9.01172 25.8125 9.01172C25.5898 9.01172 25.4102 8.95703 25.2734 8.84766C25.1406 8.73828 25.0742 8.5918 25.0742 8.4082C25.0742 7.82617 25.9219 6.9668 27.6172 5.83008C26.7891 5.69336 26.2168 5.55469 25.9004 5.41406C25.6426 5.94531 25.2461 6.48633 24.7109 7.03711C24.5859 7.16602 24.5098 7.23633 24.4824 7.24805C24.4512 7.25977 24.4316 7.26953 24.4238 7.27734C24.416 7.28125 24.4102 7.26953 24.4062 7.24219C24.4023 7.21484 24.4023 7.19531 24.4062 7.18359C24.4102 7.16797 24.418 7.15234 24.4297 7.13672C24.6133 6.92969 24.7832 6.73047 24.9395 6.53906C25.3027 6.08594 25.5703 5.68359 25.7422 5.33203C25.6016 5.24219 25.5215 5.14648 25.502 5.04492C25.4824 4.94336 25.4824 4.84961 25.502 4.76367C25.5254 4.67383 25.5605 4.59375 25.6074 4.52344C25.709 4.37109 25.8262 4.29492 25.959 4.29492C26.2051 4.29492 26.3281 4.38477 26.3281 4.56445C26.3281 4.6543 26.3105 4.73047 26.2754 4.79297L26.1699 4.97461C26.0996 5.06445 26.0645 5.16797 26.0645 5.28516C26.0645 5.35547 26.2129 5.42188 26.5098 5.48438C26.8105 5.54688 27.0234 5.58984 27.1484 5.61328C27.4219 5.66406 27.6387 5.69336 27.7988 5.70117C27.9082 5.70508 27.9629 5.73438 27.9629 5.78906C27.9629 5.82422 27.8984 5.89258 27.7695 5.99414C27.6445 6.0957 27.5059 6.21875 27.3535 6.36328C27.2012 6.50781 27.0527 6.66016 26.9082 6.82031C26.7637 6.97656 26.627 7.13672 26.498 7.30078C26.3691 7.46484 26.2559 7.62305 26.1582 7.77539C25.9473 8.10352 25.8418 8.35938 25.8418 8.54297ZM31.1738 9.01172C30.7832 9.01172 30.5879 8.89062 30.5879 8.64844C30.5879 8.44922 30.7012 8.19922 30.9277 7.89844L31.2969 7.42969L31.2383 7.40625C30.582 8.21484 29.9629 8.72266 29.3809 8.92969C29.2207 8.98438 29.082 9.01172 28.9648 9.01172C28.4844 9.01172 28.2441 8.75586 28.2441 8.24414C28.2441 7.64258 28.4844 7.06836 28.9648 6.52148C29.6758 5.69336 30.3906 5.20312 31.1094 5.05078C31.3242 5.00781 31.5078 4.98633 31.6602 4.98633C31.8125 4.98633 31.9316 4.99805 32.0176 5.02148C32.1074 5.04102 32.1855 5.07031 32.252 5.10938C32.3926 5.19922 32.4629 5.31055 32.4629 5.44336C32.4629 5.57227 32.4395 5.69531 32.3926 5.8125L32.9668 5.10352C33.0723 5.13477 33.1699 5.15039 33.2598 5.15039C33.4902 5.15039 33.6562 5.14258 33.7578 5.12695L31.7832 7.50586C31.3145 8.05273 31.0801 8.4375 31.0801 8.66016C31.0801 8.78516 31.1543 8.84766 31.3027 8.84766C31.4512 8.84766 31.6211 8.80273 31.8125 8.71289C32.0078 8.62305 32.2012 8.50781 32.3926 8.36719C32.584 8.22656 32.7695 8.07031 32.9492 7.89844C33.1328 7.72656 33.3008 7.55859 33.4531 7.39453C33.6094 7.23047 33.7461 7.07812 33.8633 6.9375L34.1445 6.62109L34.2676 6.7207L33.9688 7.06055C32.8438 8.36133 31.9121 9.01172 31.1738 9.01172ZM29.5508 6.90234C29 7.57031 28.7246 8.11719 28.7246 8.54297C28.7246 8.73828 28.8125 8.83594 28.9883 8.83594C29.5586 8.83594 30.3809 8.20508 31.4551 6.94336L31.9473 6.35156C32.1816 5.99609 32.2988 5.73828 32.2988 5.57812C32.2988 5.30469 32.1621 5.16797 31.8887 5.16797C31.5176 5.16797 30.9844 5.48438 30.2891 6.11719C30.0508 6.33594 29.8047 6.59766 29.5508 6.90234Z" fill="white"/>
</svg>
